<?xml version="1.0" encoding="UTF-8"?>
<svg id="Camada_1" data-name="Camada 1" xmlns="http://www.w3.org/2000/svg" viewBox="0 0 2080 1318.44">
  <defs>
    <style>
      .cls-1 {
        fill: #fff;
      }
    </style>
  </defs>
  <path class="cls-1" d="M940.14,756.72c10.82,55.73,39.23,92.87,101.95,84.24,62.66-8.62,165.63-137.31,172.69-198.72.48-4.15,3.08-36.53-5.67-33.2l-176.8,150.24c-4.64,1.14-6.31-12.62-6.57-15.83-6.36-75.79,72.05-227.45,120.14-286.66,4.92-6.06,41.79-50.16,40.58-24.57-1.05,22.25-21.33,63.7-17.21,83.18,1.98,9.34,41.73,43.51,46.92,38.95,6.59-36.38,25.04-71.63,43.15-103.64,7.88-13.93,30.91-42.13,31.99-55.95,2.42-30.91-39.26-45.67-65.13-50.48-1.63-.3-3.11.97-3.07,2.62l.79,29.67c-7.65-8.38-10.26-18.14-18.67-26.65-53.1-53.73-114.87,32.72-142.7,72.29-60.16,85.53-106.47,190.24-125.26,293.37l-21.03-26.9c-4.88-3.54-22.41,3.28-28.83,5.56-44.46,15.81-90.17,43.55-129.18,69.77,1.13-10.09,4.48-21.3,7.4-31.13,7.93-26.67,17.14-53.33,27.4-79.17,48.02-23.93,98.97-44.41,151.71-54.99-4.9-23.09-14.03-47.96-31.64-64.25-29.15,1.94-55.9,14.22-83.68,21.72l46.53-92.55c38.48-20.3,82.72-33.32,124.65-45.31l27.85-7.96c2.07-.59,3.4-2.63,3.08-4.77-1.6-10.9-3.42-21.74-6.03-32.46-2.16-8.87-10.57-41.71-18.63-43.56-18.72-4.3-43.34,3.4-61.38,9.01-53.47,16.63-102.81,46.85-151.58,73.53-4.16,6.38,6.39,21.16,7.35,27.43,1.63,10.68-19.99,44.4-25.88,56.47-35.14,72.02-106.09,217.52-115.45,293.05-5.05,40.79,21.78,73.42,57.63,88.61,5.27,2.23,11.32,1.46,15.87-2.01,63.08-48.08,130.61-90.6,203.41-122.62,5.23-.47,2.74.84,3.29,3.67Z"/>
  <path class="cls-1" d="M1999.4,227.44c-2.87-8-10.3-24.12-28.36-44.68-19.98-22.76-38.48-31.51-46.09-34.37-2.07-.78-4.39.06-5.5,1.97-16.38,28.11-137.44,236.62-201.19,365.8-43.31.84-88.59,6.13-131.13,13.27,50.96-104.37,111.64-206.19,118.75-218.06.48-.79.67-1.71.52-2.63-.82-5.32-5.64-23.97-33.49-39.05-28.54-15.46-55.41-6.14-61.96-3.43-.96.4-1.72,1.13-2.14,2.08-7.11,15.94-72.82,163.47-123.92,282.25-43.11,10.5-75.29,20.24-87.05,23.92-3.02.94-5.32,3.83-5.86,7.38-2.43,15.8-7.61,60.04,5.34,87.41.91,1.93,2.88,2.83,4.75,2.18,5.59-1.95,18.59-6.37,37.07-12.09-2.07,5.14-3.97,9.91-5.66,14.26-38.03,97.53-46.24,126.8-21.05,153.33,19.97,21.04,52.42,31.2,64.99,34.51,2.59.68,5.11-1.32,5.03-4-1.47-52.2,6.36-83.36,54.81-214.26,1.43-3.87,2.93-7.8,4.47-11.77,41.31-9.71,87.97-18.75,134.89-23.99-50.17,117.17-94.55,242.75-101.25,278.48-7.77,41.41,6.87,88.57,58.48,117.06,42.83,23.65,63.13.3,68.79-8.32.95-1.45.51-3.39-.97-4.29-6.61-3.98-23.2-17.87-23.4-57.02-.23-44.58,35.64-189.66,96.69-330.2,19.08.74,37.54,2.57,55,5.75,68.12,12.4,87.14,34.51,92.21,43.58.97,1.74,3.2,1.64,4.13-.19,9.36-18.33,36.53-91.24-100.73-126.02-4.1-1.04-8.3-1.98-12.55-2.85,67.26-127.89,166.1-261.29,184.9-286.31,2.09-2.79,2.67-6.42,1.5-9.7Z"/>
  <path class="cls-1" d="M1027.38,293.92c87.37,11.46,146.87-.62,367.25-53.51,9.81-2.35,19.39-4.57,28.76-6.67-5.89,10.38-52.25,93.81-119.16,261.58-71.11,178.33-105.33,274.22-92.84,300.2,12.49,25.98,49.39,33.95,81.08,36.24,0,0,15.01-107.26,95.68-325.69,46.86-126.9,119.3-252.66,143.18-292.74,130.12-19.53,198.51-9.1,216.45,2.39,19.25,12.32,15.09,31.55,13,38.01-.28.87.6,1.66,1.44,1.28,28.96-12.77,66.9-65.01,77.77-86.27,11.15-21.82-19.01-69.51-89.04-86.08-70.03-16.57-289.46,47.24-417.01,94.12-127.55,46.89-290.19,52.82-357.42,45.14-55.79-6.37-73.22-26.1-77.54-32.63-.5-.76-1.67-.58-1.91.3-16.04,59.69,44.1,93.01,130.31,104.31Z"/>
  <path class="cls-1" d="M1510.73,969.66c-65.3-30.63-257.25-91.5-572.39-48.42-315.14,43.08-450.51,126.47-482.09,147.97-31.57,21.5-34.23,52.89,11.22,109.74,35.06,43.85,69.39,56.1,83.25,59.41,2.39.57,4.38-1.98,3.19-4.14-10.06-18.34-.4-25.05,36.31-56.04,40.05-33.81,127.99-84.02,367.69-153,239.7-68.99,485-23.13,530.3-9.07,35.88,11.14,62.43,29.08,71.93,36.06,1.77,1.3,4.29.17,4.47-2.03,1.18-14.15-.43-55.41-53.88-80.48Z"/>
  <path class="cls-1" d="M356.87,1075.03c-3.5-2.83-10.05-11.4-21.6-35.89-20.45-43.33,51.56-260.2,98.17-381.55,1.11-2.9,2.27-5.86,3.44-8.87,102.37-34.12,140.15-29.67,140.15-29.67h0c-42.95,114.86-80.89,231.26-87.64,255.81-8.64,31.42-.91,41.75,33.22,71.39,34.13,29.65,62.01,15.42,62.01,15.42,14.13-115.66,32.71-187.52,81.59-322.55,48.88-135.03,139.25-304.59,148.18-321.82,8.93-17.22.19-25.07-22.99-56.06-23.17-30.99-47.5-35.68-47.5-35.68-18.06,60.07-74.33,162.99-130.25,299.54-.55,1.34-1.1,2.69-1.65,4.04h-.01c-44.53,3.19-89.31,9.82-132.76,18.52,49.76-113.4,111.28-240.69,128.25-270.2,22.96-39.92,16.53-54.41-16.16-90.45-24.91-27.47-55.43-34.79-70.52-36.74-3-.39-4.87,3.13-2.85,5.39,5.18,5.81,12.06,15.93,15.31,31.05,5.11,23.77-97.89,223.93-166.41,388.36-124.37,35.47-221.79,79.44-243.64,90.61-35.09,17.94-65.23,50-21.5,89,37.54,33.47,86.32,28.52,99.4,26.44,1.35-.21,1.82-1.88.83-2.82-21.13-20.1,6.29-39.17,118.2-85.08-52.81,135.94-92.88,242.19-98.81,269.47-6.98,32.08-29.52,62.37,41.02,109.39,56.91,37.93,85.85,17.19,94.91,7.76,1.34-1.4,1.11-3.6-.4-4.82Z"/>
</svg>